<?xml version="1.0" encoding="UTF-8"?><svg id="Layer_2" xmlns="http://www.w3.org/2000/svg" viewBox="0 0 286.81 136.68"><defs><style>.cls-1{fill:#fff;}</style></defs><g id="Layer_1-2"><g><path class="cls-1" d="M286.81,114.23c-2.3,.32-4.6,.07-6.9,.13-.49,.01-.54-.4-.66-.72-.35-.97-.75-1.93-1-2.93-.21-.83-.63-1-1.43-1-4.42,.04-8.83,.02-13.51,.02,1.22-2.02,2.35-3.91,3.5-5.78,.26-.41,.73-.23,1.11-.23,2.59-.01,5.17,0,7.95,0-1.87-5.52-3.7-10.95-5.63-16.64-1.29,3.8-2.5,7.34-3.71,10.88-1.75,5.15-3.52,10.3-5.23,15.46-.25,.74-.58,.99-1.34,.97-1.67-.05-3.34-.06-5.01,0-.98,.04-1.23-.15-.88-1.18,2.41-6.94,4.76-13.9,7.13-20.86,.74-2.18,1.48-4.36,2.23-6.54,.45-1.32,.99-2.6,1.83-3.73,2.65-3.54,7.43-3.5,10.03,.08,1.07,1.47,1.61,3.18,2.19,4.87,2.96,8.68,5.91,17.37,8.87,26.06,.11,.32,.08,.72,.47,.89v.24Z"/><path class="cls-1" d="M123.91,136.68c-.28-.48-.79-.22-1.18-.33-3.04-.81-4.96-3.39-4.73-6.43,.22-2.95,2.47-5.27,5.53-5.62,4.54-.51,7.16,2.55,7.43,5.49,.29,3.22-2.16,6.4-5.39,6.65-.31,.02-.73-.23-.94,.23h-.72Zm.6-2.61c2.08,0,3.65-1.63,3.61-3.74-.04-2.03-1.62-3.65-3.6-3.68-2-.04-3.64,1.64-3.64,3.74,0,2.16,1.5,3.69,3.63,3.68Z"/><path class="cls-1" d="M38.65,136.68c-1.02-.47-2.16-.54-3.2-1-1.36-.59-.38-1.29-.21-1.97,.25-.98,.73-.45,1.21-.23,1.32,.61,2.69,.94,4.15,.59,.55-.13,.98-.41,1.04-.99,.07-.64-.42-.92-.93-1.07-1.02-.31-2.07-.53-3.09-.84-1.91-.59-2.83-1.67-2.78-3.24,.05-1.66,1.14-2.96,2.96-3.42,1.87-.47,3.68-.27,5.48,.42,1.14,.44,.38,1.05,.21,1.6-.16,.53-.29,1.09-1.11,.62-.83-.48-1.79-.62-2.76-.57-.85,.05-1.82,.09-1.91,1.17-.08,.99,.87,1.08,1.58,1.28,.76,.21,1.55,.35,2.3,.58,2.23,.7,3.02,1.73,2.84,3.63-.16,1.64-1.7,2.96-3.64,3.19-.4,.05-.88-.23-1.19,.24h-.96Z"/><path class="cls-1" d="M214.91,136.68c-.35-.49-.93-.27-1.39-.42-3.11-.97-4.8-3.68-4.31-7.03,.4-2.71,2.98-4.87,5.88-4.96,1.77-.06,3.38,.3,4.77,1.46,.55,.46,.65,.79,.02,1.28-.72,.56-1.18,1.23-2.26,.29-1.36-1.17-3.58-.74-4.73,.59-1.2,1.39-1.18,3.69,.03,5.04,1.21,1.34,3.34,1.54,4.89,.5,.32-.21,.56-.82,1-.55,.56,.35,1.05,.85,1.49,1.35,.25,.29-.16,.48-.34,.65-.94,.92-2.08,1.42-3.39,1.56-.32,.04-.73-.2-.95,.23h-.72Z"/><path class="cls-1" d="M198.54,32.77c3.07,1.9,5.48,4.06,7.22,6.89,4.65,7.53,2.75,17.1-4.51,22.73-3.96,3.07-8.54,4.58-13.44,5.25-3.48,.47-6.99,.3-10.48,.31-8.44,.02-16.87-.01-25.31,.03-.97,0-1.14-.29-1.14-1.18,.03-17.95,.11-35.9-.03-53.84-.05-5.9,4.19-11.05,9.82-12.44,1.2-.3,2.41-.46,3.65-.46,6.29,.01,12.57-.05,18.86,.03,4.93,.06,9.59,1.21,13.69,4.09,9.26,6.51,10.54,19.63,2.73,27.84-.27,.28-.64,.47-1.05,.77Zm-23.15,7.47c-3.26,0-5.96,.01-8.67-.01-.58,0-.86,.1-.85,.77,.03,4.37,.02,8.75,0,13.12,0,.64,.22,.8,.83,.79,5.96-.09,11.92,.19,17.88-.19,2.2-.14,4.28-.78,6.12-2.06,3.91-2.69,3.96-7.35,.11-10.11-1.89-1.35-4.04-1.96-6.32-2.17-3.21-.3-6.43-.06-9.09-.15Zm-9.51-2.68l.22,.1c.2-.32,.4-.64,.6-.96,1.82-2.93,3.66-5.85,5.44-8.81,.38-.64,.8-.83,1.52-.82,3.02,.04,6.05,.02,9.07,.02,2.21,0,4.17-.71,5.63-2.39,1.86-2.14,2.26-4.63,1.17-7.23-1.21-2.87-3.63-4.2-6.61-4.27-5.41-.12-10.82-.03-16.24-.06-.6,0-.82,.13-.82,.78,.02,7.88,.01,15.76,.01,23.64Z"/><path class="cls-1" d="M42.23,47.48c6.07,6.8,12.07,13.52,18.11,20.29-.37,.33-.78,.18-1.14,.18-5.49,.01-10.98,0-16.47,.03-.79,0-1.31-.24-1.82-.83-4.95-5.65-9.94-11.27-14.87-16.94-.64-.74-1.26-1.02-2.22-.99-2.55,.06-5.09,.06-7.64,0-.86-.02-1.03,.25-1.02,1.06,.04,5.49,0,10.98,.05,16.48,.01,1.03-.3,1.24-1.27,1.23-4.26-.05-8.52-.04-12.77,0-.81,0-1.07-.17-1.07-1.03,.03-17.99,.06-35.98,0-53.97C.08,5.38,6.33,.17,13.1,.08c6.52-.09,13.05-.13,19.58,.01,6.9,.15,13.23,2.1,18.41,6.88,4.31,3.98,6.59,9,6.86,14.83,.18,3.84,.24,7.71-1.04,11.44-2.46,7.19-7.58,11.62-14.68,14.23Zm-27.05-.65c.25-.3,.28-.32,.3-.35,1.97-3.16,3.96-6.31,5.88-9.5,.41-.68,.85-.86,1.61-.88,3.73-.06,7.47,.24,11.2-.19,4.61-.53,7.84-3.36,8.68-7.83,.37-1.96,.2-3.97,.1-5.95-.09-1.73-.64-3.34-1.66-4.76-2.19-3.06-5.41-4.07-8.93-4.15-5.33-.12-10.66-.01-15.99-.07-1-.01-1.23,.24-1.22,1.23,.04,10.34,.02,20.68,.02,31.02v1.44Z"/><path class="cls-1" d="M73.77,22.17c0-7.01,.02-14.01-.02-21.02,0-.89,.21-1.13,1.11-1.12,4.26,.05,8.52,.05,12.78,0,.95-.01,1.17,.26,1.17,1.18-.03,13.61-.07,27.23,0,40.84,.03,5.04,2.15,9.05,6.63,11.6,1.4,.8,2.94,1.13,4.56,1.18,3.14,.09,6.31,.37,9.4-.2,4.8-.89,8.64-5.38,9.27-10.44,.16-1.26,.23-2.53,.23-3.81-.01-13.06,0-26.11-.03-39.17,0-.89,.17-1.2,1.14-1.19,4.26,.06,8.52,.06,12.78,0,.92-.01,1.11,.27,1.11,1.14-.03,13.57,0,27.15-.03,40.72-.04,12.95-9.59,24.06-22.47,25.69-6.17,.78-12.51,1.17-18.58-.69-10.46-3.2-16.73-10.33-18.77-21.1-.23-1.24-.27-2.53-.28-3.8-.03-6.61-.01-13.22-.01-19.82Z"/><path class="cls-1" d="M216.95,.06c5.31,0,10.44,.01,15.56-.01,.68,0,.84,.47,1.11,.89,5.69,8.84,11.38,17.68,17.07,26.52,.12,.19,.25,.37,.45,.67,2.06-3.22,4.08-6.35,6.09-9.49,3.8-5.91,7.6-11.82,11.4-17.73,.3-.46,.53-.88,1.25-.88,4.97,.04,9.95,.02,14.92,.03,.1,0,.21,.04,.3,.07,.13,.31-.08,.48-.2,.68-6.63,10.69-13.25,21.38-19.9,32.05-1.62,2.61-3.47,5.05-5.86,7.01-.5,.41-.45,.88-.45,1.39,0,8.48-.02,16.96,.03,25.44,0,1.05-.24,1.31-1.29,1.29-4.22-.07-8.44-.05-12.66,0-.84,0-1.05-.21-1.05-1.05,.03-8.48,.01-16.96,.04-25.44,0-.74-.19-1.22-.78-1.71-2.07-1.71-3.74-3.8-5.15-6.06-6.86-11.01-13.7-22.03-20.54-33.05-.08-.13-.14-.27-.32-.61Z"/><path class="cls-1" d="M153.08,107.56c0-8.63,0-17.27,0-25.9,0-1.91-.31-1.73,1.69-1.74,1.43,0,2.87,.02,4.3-.01,.67-.02,.89,.22,.89,.9-.02,9.23,0,18.46-.02,27.69,0,2.53-1.87,4.79-4.53,5.7-2.61,.89-5.13,.22-6.8-1.79-1.11-1.33-1.8-2.9-2.45-4.48-2.8-6.79-5.59-13.58-8.4-20.37-.14-.35-.18-.77-.67-1.11v1.31c0,8.48-.01,16.95,.02,25.43,0,.92-.21,1.26-1.18,1.21-1.59-.08-3.18-.04-4.77-.01-.62,.01-.81-.2-.81-.82,.02-9.39-.01-18.78,.03-28.17,.01-2.54,2.55-5.03,5.43-5.55,2.62-.47,4.69,.41,6.23,2.54,.82,1.13,1.4,2.4,1.93,3.68,2.81,6.83,5.62,13.66,8.43,20.49,.15,.35,.32,.7,.47,1.05,.07-.01,.14-.02,.21-.04Z"/><path class="cls-1" d="M23.57,86.74c0,3.22,0,6.44,0,9.66,0,5.61-.02,11.23,.02,16.84,0,.87-.2,1.2-1.12,1.16-1.63-.07-3.26-.04-4.9,0-.68,.01-.88-.23-.88-.9,.02-9.28,0-18.55,.03-27.83,0-2.45,1.91-4.68,4.54-5.56,2.6-.87,5.05-.25,6.72,1.71,1.15,1.35,1.86,2.95,2.53,4.57,2.81,6.83,5.62,13.67,8.44,20.5,.13,.31,.16,.7,.62,.96v-1.42c0-8.44,.01-16.88-.02-25.32,0-.93,.23-1.25,1.19-1.2,1.55,.08,3.1,.04,4.66,.01,.61-.01,.93,.09,.93,.83-.02,9.36,0,18.71-.03,28.07-.01,2.67-2.63,5.21-5.6,5.66-2.81,.43-4.86-.69-6.37-3-1.14-1.75-1.82-3.71-2.6-5.61-2.55-6.17-5.09-12.34-7.63-18.51-.09-.21-.19-.42-.28-.63-.07,0-.15,.01-.22,.02Z"/><path class="cls-1" d="M55.84,99.47c0-4.3,0-8.6,0-12.89,0-3.78,2.28-6.42,6.06-6.6,3.45-.16,6.93-.27,10.37,.06,6.54,.63,11.14,5.15,11.81,11.69,.37,3.6,.38,7.24,0,10.84-.73,6.95-6.03,11.7-13.01,11.79-4.73,.06-9.47,0-14.2,.03-.85,0-1.05-.26-1.05-1.08,.04-4.62,.02-9.23,.02-13.85Zm6.84-2.35c0,3.34,.04,6.68-.02,10.02-.02,.97,.3,1.2,1.21,1.17,2.22-.06,4.46-.12,6.68,0,4.12,.23,6.61-3.1,6.76-6.25,.16-3.29,.18-6.61,0-9.9-.2-3.44-2.93-6.42-6.69-6.19-2.22,.14-4.45,.07-6.68,0-.96-.03-1.3,.2-1.28,1.23,.07,3.3,.03,6.6,.03,9.9Z"/><path class="cls-1" d="M121.73,97.53c-.09,2.15,.21,4.67-.37,7.14-1.41,6.04-6.48,10.1-12.66,10.06-2.38-.02-4.78,.26-7.14-.24-5.62-1.19-9.93-6.19-10.12-11.91-.12-3.46-.12-6.92-.03-10.38,.18-7.21,5.68-12.55,13.09-12.74,2.58-.07,5.18-.22,7.71,.49,5.62,1.57,9.43,6.62,9.52,12.58,.02,1.55,0,3.1,0,5Zm-6.88,.18c0-2.31,.07-4.06-.01-5.81-.17-3.77-2.92-6.36-6.66-6.37-1.07,0-2.15,0-3.22,0-3.57,0-6.2,2.13-6.61,5.71-.44,3.83-.43,7.72-.03,11.55,.42,3.97,2.97,5.97,6.98,5.97,.96,0,1.91,0,2.87,0,3.32-.02,5.67-1.85,6.45-5.07,.53-2.16,.1-4.36,.23-5.99Z"/><path class="cls-1" d="M196.22,114.19c-.37,.29-.7,.18-1,.18-6.41,0-12.81,.02-19.22,0-3.65,0-6.32-2.1-6.78-5.26-.06-.43-.06-.87-.06-1.31,0-7.08,0-14.17,0-21.25,0-3.81,2.4-6.52,6.2-6.59,6.84-.11,13.69-.03,20.53-.02,.07,0,.14,.06,.34,.16-.97,1.86-1.94,3.7-2.91,5.55-.27,.51-.75,.36-1.16,.36-5.01,0-10.03,.03-15.04-.02-.95,0-1.21,.25-1.18,1.19,.07,2.03,.05,4.06,0,6.09-.02,.78,.22,1.01,1.01,1.01,4.54-.03,9.07,.01,13.61-.04,.99-.01,1.32,.25,1.26,1.25-.08,1.27-.07,2.55,0,3.82,.05,.85-.25,1.07-1.08,1.06-4.54-.04-9.07,0-13.61-.04-.93,0-1.23,.22-1.19,1.18,.08,1.87,.07,3.74,0,5.61-.03,.91,.19,1.22,1.16,1.21,4.97-.05,9.95,0,14.92-.04,.82,0,1.28,.22,1.64,.99,.79,1.68,1.7,3.29,2.56,4.93Z"/><path class="cls-1" d="M202.93,110.54c1.78-1.43,3.52-2.82,5.25-4.22,.37-.3,.62-.34,1,.03,1.5,1.48,3.35,2.05,5.44,1.95,1.98-.1,3.98,.21,5.94-.27,1.05-.26,2.04-.68,2.84-1.43,1.46-1.39,1.35-3.08-.3-4.24-1.05-.74-2.27-1.14-3.48-1.51-2.96-.91-6.01-1.5-8.91-2.62-1.34-.51-2.64-1.1-3.82-1.93-4.06-2.85-4.71-8.09-1.49-11.89,1.79-2.11,4.07-3.53,6.75-3.99,4.69-.82,9.41-.93,14.02,.62,1.44,.48,2.77,1.17,3.99,2.1,.59,.45,.55,.72,0,1.15-1.55,1.19-3.07,2.4-4.58,3.63-.46,.38-.74,.38-1.18-.08-1.24-1.31-2.79-1.9-4.61-1.83-1.43,.05-2.86-.02-4.3,.02-1.68,.04-3.22,.53-4.42,1.77-1.37,1.42-1.18,2.94,.5,3.97,1.61,1,3.45,1.41,5.24,1.91,2.56,.71,5.15,1.33,7.6,2.4,.8,.35,1.59,.73,2.34,1.18,5.63,3.35,6.01,10.16,.79,14.14-2.48,1.89-5.32,2.78-8.42,2.92-3.86,.17-7.72,.27-11.44-1.05-1.72-.61-3.4-1.31-4.75-2.72Z"/><path class="cls-1" d="M.19,97.06c0-5.29,.02-10.59-.02-15.88,0-.95,.18-1.34,1.22-1.28,1.55,.09,3.1,.06,4.65,0,.81-.03,1,.27,1,1.04-.02,10.83-.02,21.65,0,32.48,0,.71-.2,.99-.94,.97-1.63-.05-3.26-.06-4.89,0-.89,.04-1.03-.31-1.03-1.1,.03-5.41,.02-10.83,.02-16.24Z"/><path class="cls-1" d="M246.89,97.27c0,5.33-.02,10.67,.02,16,0,.92-.27,1.16-1.14,1.12-1.47-.07-2.95-.1-4.42,0-1.13,.08-1.29-.38-1.28-1.37,.04-7.09,.02-14.17,.02-21.26,0-3.54,.04-7.09-.02-10.63-.02-1.03,.32-1.29,1.29-1.24,1.47,.07,2.95,.07,4.42,0,.88-.04,1.15,.21,1.14,1.12-.04,5.41-.02,10.83-.02,16.24Z"/><path class="cls-1" d="M158.11,129.85c-.9,1.5-1.78,3-2.69,4.49-.61,1-1.57,.99-2.18-.01-.88-1.44-1.76-2.88-2.87-4.28,0,1.68-.11,3.37,.03,5.03,.1,1.24-.51,1.18-1.39,1.22-1,.05-1.35-.16-1.32-1.27,.09-3.1,.02-6.2,.05-9.31,0-.4-.35-1.16,.31-1.18,.77-.02,1.73-.51,2.34,.52,1.29,2.18,2.61,4.34,3.97,6.6,1.31-2.2,2.58-4.34,3.86-6.47,.34-.56,2.1-.99,2.61-.65,.25,.17,.16,.42,.16,.64,0,3.46,0,6.92,.02,10.38,0,.6-.2,.78-.75,.72-.27-.03-.56-.04-.83,0-.84,.12-1.18-.12-1.13-1.08,.09-1.77,.03-3.55,.03-5.32-.07-.01-.15-.02-.22-.04Z"/><path class="cls-1" d="M180.26,129.35c0,2.22-.04,4.13,.02,6.03,.02,.77-.24,.92-.94,.91-1.91,0-1.91,.03-1.91-1.83,0-2.86-.02-5.73,.02-8.59,0-.44-.39-1.24,.3-1.3,.79-.07,1.73-.48,2.43,.39,1.52,1.89,3.07,3.75,4.61,5.62,.17,.21,.36,.41,.74,.84,0-2.07,.04-3.92-.02-5.75-.03-.88,.14-1.35,1.13-1.17,.35,.06,.72,.03,1.07,0,.45-.03,.63,.13,.63,.61-.02,3.54,0,7.08,0,10.62,0,.24,0,.53-.32,.52-.98-.03-1.97,.33-2.78-.77-1.5-2.04-3.18-3.94-4.98-6.13Z"/><path class="cls-1" d="M244.05,131.52c0-2.21,.04-4.14-.02-6.08-.03-.8,.23-1.06,.99-.95,.35,.05,.72,.04,1.07,0,.53-.06,.67,.16,.67,.67-.02,3.5-.02,7,0,10.49,0,.45-.13,.61-.6,.63-1.06,.05-1.92-.05-2.66-1.07-1.41-1.94-3.02-3.74-4.76-5.86,0,2.15-.06,4,.02,5.84,.04,.94-.28,1.22-1.13,1.08-.19-.03-.4-.03-.59,0-.84,.13-1.15-.11-1.13-1.06,.08-3.1,.01-6.2,.04-9.3,0-.46-.31-1.28,.25-1.34,.82-.09,1.8-.48,2.53,.44,1.56,1.96,3.16,3.88,4.74,5.81,.13,.15,.26,.3,.59,.69Z"/><path class="cls-1" d="M57.3,124.5c1.11,.08,2.42-.14,3.72,.23,2.99,.84,4.6,3.14,4.36,6.35-.2,2.7-2.34,4.89-5.23,5.11-2.02,.15-4.05,.06-6.08,.1-.45,0-.62-.15-.62-.62,.02-3.54,.02-7.08,0-10.62,0-.54,.27-.56,.67-.56,.99,.01,1.99,0,3.18,0Zm.89,2.33c-.2,0-.4,.03-.59,0-.99-.16-1.43,.13-1.3,1.24,.12,1.06,.03,2.14,.03,3.21,0,3.04,.16,3.17,3.25,2.63,1.9-.33,2.99-1.63,2.97-3.54-.02-2.32-1.5-3.52-4.35-3.53Z"/><path class="cls-1" d="M20.49,130.4c0-1.71,0-3.42,0-5.13,0-.3-.21-.8,.41-.77,2.41,.1,4.86-.33,7.24,.28,2.71,.69,4.42,3.21,4.22,6.01-.21,2.91-2.32,5.17-5.23,5.39-1.98,.15-3.97,.05-5.96,.11-.6,.02-.72-.22-.71-.76,.03-1.71,.01-3.42,.01-5.13Zm2.81,0v1.07q0,2.65,2.67,2.5c2.65-.15,4.2-2.46,3.31-4.95-.64-1.8-2.85-2.83-5.47-2.13-1.19,.32-.24,1.77-.5,2.68-.07,.26-.01,.55-.01,.83Z"/><path class="cls-1" d="M285.37,136.28c-1.01,0-1.76-.03-2.51,0-.47,.02-.72-.22-.96-.57-.49-.72-1.02-1.42-1.49-2.16-.24-.38-.52-.51-.97-.53-1.74-.08-1.72-.09-1.75,1.87,0,.44,.26,1.17-.2,1.28-.78,.19-1.65,.09-2.48,.02-.27-.02-.15-.4-.15-.62,0-3.46,0-6.92-.01-10.39,0-.48,.07-.72,.64-.7,1.83,.04,3.66-.04,5.49,.05,2,.1,3.49,1.29,3.99,3.02,.53,1.82-.01,3.44-1.7,4.66-.53,.38-.29,.61-.07,.93,.67,.98,1.35,1.95,2.17,3.13Zm-7.66-7.38c.31,.56-.78,2,1.24,1.87,2.45-.16,3.3-.52,3.33-1.94,.03-1.43-.85-2-3.12-2q-1.45,0-1.45,2.07Z"/><path class="cls-1" d="M2.82,129.87c1.4-1.48,2.68-2.72,3.82-4.08,.84-1,1.75-1.52,3.06-1.3,.37,.06,.76,0,1.39,0-1.47,1.59-2.76,3.02-4.1,4.41-.58,.6-.72,1.03-.1,1.75,1.49,1.75,2.88,3.59,4.47,5.59-1.77-.05-3.43,.57-4.5-1.35-.5-.89-1.3-1.6-1.92-2.43-.41-.55-.7-.71-1.25-.11-.6,.65-.93,1.28-.89,2.2,.08,1.73,.02,1.73-1.74,1.71-.12,0-.24-.01-.36,0-.5,.05-.69-.14-.69-.67,.02-3.46,.02-6.92,0-10.38,0-.59,.2-.72,.75-.74,2.06-.07,2.06-.09,2.06,2.01,0,1.03,0,2.06,0,3.37Z"/><path class="cls-1" d="M68.56,130.36c0-1.67,.03-3.35-.02-5.02-.02-.7,.21-.86,.88-.86,2.47,.04,4.94,.06,7.4,0,.96-.03,.77,.55,.74,1.07-.03,.5,.36,1.25-.73,1.2-1.55-.07-3.11,.04-4.66-.04-1.15-.06-.8,.72-.79,1.25,0,.53-.39,1.34,.77,1.27,1.31-.08,2.63,.03,3.94-.03,1.08-.05,.69,.71,.73,1.21,.04,.53,.18,1.11-.77,1.05-1.27-.09-2.55,.03-3.82-.04-.78-.05-.98,.23-.89,.94,.05,.35,.04,.72,0,1.07-.06,.56,.2,.65,.69,.65,1.59-.02,3.19,.05,4.78-.03,.92-.05,1.04,.33,.99,1.09-.05,.64,.11,1.21-.92,1.18-2.47-.08-4.94-.05-7.4-.01-.71,.01-.98-.16-.95-.92,.06-1.67,.02-3.34,.02-5.02Z"/><path class="cls-1" d="M94.83,130.33c0-1.63,.03-3.26-.02-4.89-.02-.7,.12-.98,.9-.96,2.42,.05,4.85,.06,7.28,0,.84-.02,.92,.36,.84,.99-.07,.54,.36,1.33-.8,1.28-1.51-.07-3.02,.01-4.53-.03-.65-.02-.88,.13-.88,.83,0,1.66-.04,1.66,1.59,1.66,1.07,0,2.15,.03,3.22,0,1.11-.03,.6,.78,.67,1.26,.07,.49,.17,1.03-.7,.99-1.31-.07-2.63,.02-3.94-.03-.69-.03-.92,.2-.84,.86,.04,.35,.04,.72,0,1.07-.07,.59,.18,.73,.74,.72,1.63-.03,3.26,.05,4.89-.04,1.03-.06,.8,.58,.81,1.14,0,.57,.19,1.16-.82,1.13-2.54-.07-5.09-.04-7.63-.01-.64,0-.8-.22-.79-.83,.04-1.71,.01-3.42,.01-5.13Z"/><path class="cls-1" d="M134.18,130.35c0-1.71,0-3.42,0-5.14,0-.34-.11-.73,.48-.72,1.99,.03,4-.13,5.96,.09,2.53,.28,3.9,2.05,3.81,4.49-.08,2.18-1.77,3.76-4.28,4-.12,.01-.24,.01-.36,.01-.87,.02-1.98-.29-2.55,.13-.61,.46-.16,1.63-.21,2.48-.02,.39-.12,.53-.53,.59-2.14,.3-2.33,.15-2.33-1.99,0-1.31,0-2.63,0-3.94Zm2.85-1.6c0,.48,0,.95,0,1.43,0,.3,0,.56,.42,.55,.87-.03,1.77,.08,2.62-.08,1.43-.27,2.02-1.97,1.15-3.07-.55-.7-1.35-.75-2.16-.76-2.03-.02-2.03-.03-2.03,1.93Z"/><path class="cls-1" d="M164.99,130.36c0-1.71,.02-3.42-.01-5.13-.01-.56,.13-.75,.72-.74,2.51,.03,5.01,.05,7.52,0,1.02-.02,.65,.68,.66,1.14,.02,.48,.29,1.16-.7,1.12-1.51-.06-3.03,.05-4.53-.04-1.11-.06-.86,.67-.84,1.25,.02,.56-.33,1.34,.81,1.27,1.27-.07,2.55,.03,3.82-.03,1.08-.05,.7,.7,.74,1.21,.04,.53,.18,1.11-.76,1.05-1.27-.08-2.55,0-3.82-.03-.6-.02-.89,.13-.8,.78,.04,.27,.04,.56,0,.83-.13,.83,.18,1.09,1.02,1.05,1.47-.07,2.95,.04,4.41-.04,.88-.05,.99,.34,.92,1.03-.06,.57,.27,1.27-.85,1.24-2.5-.08-5.01-.04-7.52,0-.62,0-.81-.16-.8-.79,.04-1.71,.01-3.42,.01-5.13Z"/><path class="cls-1" d="M223.44,130.35c0-1.67,.03-3.34-.02-5.01-.02-.69,.21-.86,.87-.85,2.39,.04,4.78,.08,7.16-.01,1.05-.04,.87,.54,.91,1.17,.05,.74-.02,1.17-.97,1.11-1.43-.09-2.87,.04-4.3-.04-1.2-.07-.83,.74-.88,1.34-.05,.67-.09,1.25,.93,1.18,1.27-.09,2.55,0,3.82-.03,1.12-.03,.59,.79,.66,1.26,.07,.47,.2,1.04-.68,.99-1.31-.07-2.63,.01-3.94-.03-.64-.02-.79,.2-.8,.82-.02,1.83-.05,1.83,1.8,1.83,1.27,0,2.55,.07,3.82-.02,.95-.07,.81,.52,.76,1.05-.05,.48,.4,1.24-.71,1.21-2.55-.05-5.09-.04-7.64,0-.64,0-.81-.19-.8-.81,.04-1.71,.01-3.42,.01-5.13Z"/><path class="cls-1" d="M262.37,130.29c0-1.67,.03-3.34-.01-5.01-.02-.63,.18-.8,.8-.79,2.47,.03,4.94,.05,7.4,0,1.11-.03,.66,.73,.71,1.21,.05,.53,.19,1.1-.76,1.05-1.51-.08-3.03,.03-4.53-.04-1.13-.05-.8,.71-.82,1.28-.02,.59-.25,1.31,.85,1.24,1.27-.08,2.55,.04,3.82-.04,1.11-.06,.69,.71,.73,1.2,.04,.51,.22,1.12-.74,1.06-1.27-.08-2.55,.02-3.82-.04-.69-.03-.94,.2-.85,.87,.03,.23,.04,.48,0,.71-.12,.8,.13,1.12,1.01,1.08,1.51-.08,3.03,.06,4.53-.05,1.03-.07,.86,.53,.83,1.11-.02,.53,.29,1.19-.77,1.16-2.55-.07-5.09-.04-7.64-.01-.57,0-.75-.17-.74-.74,.03-1.75,.01-3.5,.01-5.25Z"/><path class="cls-1" d="M79.6,124.57c.13-.03,.21-.06,.28-.07q2.68-.1,3.73,2.36c.81,1.89,1.62,3.78,2.5,5.83,.84-1.91,1.64-3.7,2.43-5.5,.1-.22,.17-.44,.27-.66q.98-2.29,3.66-1.91c-1.36,3.14-2.7,6.25-4.05,9.36-.11,.25-.27,.5-.32,.76-.26,1.26-1,1.63-2.28,1.59-.97-.03-1.38-.36-1.72-1.18-1.35-3.21-2.75-6.39-4.12-9.58-.14-.32-.25-.66-.37-.99Z"/><path class="cls-1" d="M254.58,124.5c1.47,0,2.95,.05,4.42-.02,.82-.04,.84,.42,.74,.96-.1,.51,.47,1.4-.7,1.39-.72,0-1.44,.05-2.15-.01-.71-.06-.95,.14-.94,.9,.05,2.51-.01,5.02,.04,7.52,.02,.82-.19,1.18-1.04,1.05-.27-.04-.56-.04-.83,0-.76,.1-1.02-.15-1-.97,.06-2.55,0-5.09,.04-7.64,0-.67-.17-.93-.86-.86-.47,.05-.95,.01-1.43,.01-1.57,0-1.53,0-1.52-1.55,0-.64,.2-.81,.82-.8,1.47,.04,2.94,.01,4.42,.01Z"/><path class="cls-1" d="M196.17,124.5c1.43,0,2.87,.07,4.29-.02,1.04-.07,.82,.57,.81,1.13,0,.59,.26,1.32-.85,1.24-.94-.07-2.22-.33-2.75,.15-.62,.58-.17,1.87-.19,2.85-.03,1.83-.04,3.66,0,5.48,.02,.68-.07,.98-.88,.96-1.94-.03-1.94,.02-1.94-1.94,0-2.23-.02-4.45,.01-6.68,.01-.66-.16-.94-.85-.87-.47,.05-.95,0-1.43,0-1.45,0-1.77-.46-1.46-1.93,.1-.5,.41-.39,.7-.39,1.51,0,3.02,0,4.53,0Z"/><path class="cls-1" d="M107.36,130.4c0-1.67,.04-3.34-.02-5.01-.03-.74,.19-.93,.92-.92,1.97,.03,1.97-.01,1.97,2.01,0,2.15,.03,4.29-.02,6.44-.02,.8,.16,1.13,1.03,1.08,1.35-.08,2.7,.03,4.05-.04,.98-.05,.76,.6,.71,1.09-.05,.47,.44,1.26-.68,1.24-2.42-.04-4.85-.03-7.27,0-.6,0-.72-.22-.71-.76,.03-1.71,.01-3.42,.01-5.13Z"/><path class="cls-1" d="M16.5,130.4c0,1.67-.03,3.34,.01,5.01,.02,.65-.13,.88-.84,.89-2.06,.01-2.05,.05-2.05-2.06,0-2.9,.03-5.8-.02-8.7-.01-.83,.19-1.17,1.04-1.04,.31,.05,.64,.05,.95,0,.74-.11,.95,.16,.92,.91-.06,1.67-.02,3.34-.02,5.01Z"/></g></g></svg>