<?xml version="1.0" encoding="UTF-8"?><svg id="Layer_2" xmlns="http://www.w3.org/2000/svg" viewBox="0 0 136.69 136.69"><defs><style>.cls-1{fill:#f3bc19;}.cls-2{fill:#fff;}</style></defs><g id="Layer_1-2"><g><rect class="cls-2" x="0" y="0" width="136.69" height="136.69" rx="68.35" ry="68.35"/><g><path class="cls-1" d="M17.3,47.09c-.13-.38,.2-.44,.4-.56,1.74-1.11,3.48-2.2,5.23-3.3,6.31-3.97,12.61-7.94,18.92-11.91,.12-.08,.25-.14,.36-.23,.29-.24,.53-.2,.82,.03,.97,.75,1.95,1.47,2.93,2.2,4.91,3.67,9.82,7.35,14.75,11,.38,.29,.5,.58,.45,1.03-.23,2.14-.45,4.29-.65,6.43-.23,2.5-.46,5.01-.65,7.52-.24,3.03-.47,6.07-.67,9.1-.15,2.37-.24,4.74-.36,7.11-.22,4.4-.32,8.81-.32,13.22,0,3.35,.06,6.71,.23,10.06,.17,3.25,.39,6.5,.81,9.74,.03,.24,.02,.48,.03,.72-.11-.07-.13-.19-.16-.31-.26-.82-.52-1.64-.78-2.46-.71-2.2-1.44-4.4-2.14-6.61-.71-2.23-1.39-4.47-2.1-6.7-.64-2.03-1.29-4.05-1.94-6.08-1.18-3.71-2.41-7.41-3.53-11.13-.31-1.01-.91-1.72-1.65-2.36-1.24-1.08-2.48-2.16-3.7-3.27-.51-.46-1.02-.94-1.54-1.4-1.07-.95-2.17-1.87-3.23-2.83-.67-.61-1.33-1.25-2.02-1.82-1.45-1.2-2.81-2.51-4.24-3.74-1.31-1.12-2.59-2.26-3.85-3.42-1.51-1.4-3.09-2.7-4.59-4.11-.47-.44-.95-.87-1.43-1.3-1.16-1.03-2.33-2.05-3.49-3.08-.52-.46-1.03-.93-1.54-1.39-.09-.08-.21-.11-.33-.13Z"/><path class="cls-1" d="M118.15,54.5c.02,.13,0,.26-.05,.38-.16,.11-.17,.24-.06,.38,.02,.12,0,.23-.06,.33-.2,.11-.21,.24-.06,.4,.03,.16,0,.32-.09,.46-.23,.15-.18,.34-.07,.54,.03,.17,0,.32-.09,.47-.19,.13-.13,.31-.1,.49,.03,.13,0,.26-.05,.38-.13,.07-.15,.15-.03,.25,.02,.16,.01,.32-.09,.46-.2,.11-.21,.24-.06,.4,.02,.21,0,.42-.11,.61-.19,.13-.12,.31-.1,.49-.02,.13-.03,.25-.05,.38-.16,.11-.17,.24-.06,.38,.02,.12,0,.23-.06,.33-.2,.11-.21,.24-.06,.4,.02,.17,0,.32-.09,.46-.19,.11-.2,.24-.05,.4,.02,.21,0,.42-.1,.61-.2,.13-.13,.31-.1,.49,.02,.13,0,.26-.05,.38-.16,.11-.16,.24-.06,.38,.02,.12,0,.23-.06,.33-.2,.11-.21,.24-.06,.4,.02,.17,0,.32-.09,.46-.23,.15-.18,.34-.08,.53,.03,.17,0,.32-.08,.47-.19,.13-.13,.31-.1,.49,.03,.13,0,.26-.05,.38-.13,.07-.16,.15-.03,.25,.02,.16,0,.32-.09,.46-.2,.11-.21,.24-.06,.4,.04,.27-.06,.51-.12,.76-.12,.09-.11,.21-.08,.34,.02,.13,0,.26-.05,.38-.16,.1-.17,.24-.06,.38,.02,.12,0,.23-.06,.33-.2,.11-.21,.24-.06,.4,.02,.16,0,.32-.09,.46-.23,.15-.18,.34-.07,.54,.02,.17,0,.32-.09,.47-.19,.13-.13,.31-.1,.48-.02,.13-.03,.26-.05,.39-.16,.11-.16,.24-.05,.39,.02,.12,0,.23-.07,.32-.2,.11-.21,.24-.06,.4,.02,.17,0,.32-.09,.46-.22,.15-.17,.34-.08,.53,.03,.17,0,.32-.08,.47-.19,.13-.13,.31-.1,.49,.03,.13,0,.26-.05,.38-.13,.07-.16,.15-.03,.25,.02,.16,0,.32-.09,.46-.19,.11-.2,.24-.06,.4,.04,.27-.05,.51-.12,.76-.12,.09-.11,.21-.08,.33-.02,.13-.03,.25-.05,.38-.17,.12-.13,.28-.1,.44-.25,.41-.65,.62-1.05,.83-1.79,.96-3.71,1.54-5.67,2.02-5.08,1.23-10.25,1.65-15.47,1.57-2.44-.04-4.89-.12-7.3-.56-5.17-.94-9.95-2.78-14.11-6.08-2.55-2.03-4.47-4.52-5.47-7.66-.76-2.39-.89-4.85-.63-7.32,.39-3.76,1.61-7.28,3.15-10.71,.33-.74,.62-1.5,1.08-2.18,.56,.2,.92,.66,1.35,1.03,1.21,1.05,2.35,2.18,3.56,3.22,.53,.45,1,.96,1.54,1.4,1.16,.93,2.2,1.98,3.33,2.94,.75,.63,1.41,1.36,2.17,1.98,.48,.4,.92,.84,1.38,1.25,1.21,1.08,2.45,2.13,3.64,3.24,.68,.63,1.37,1.26,2.08,1.87,.61,.53,1.13,1.16,1.82,1.61,.5,.32,.49,.36,.97,.03,1.3-.89,2.53-1.87,3.79-2.82,3.64-2.74,7.29-5.47,10.94-8.21,2.73-2.05,5.46-4.09,8.18-6.15,1.48-1.12,2.97-2.24,4.47-3.34,.46-.34,.94-.66,1.39-1.01,.2-.16,.28-.06,.4,.07,.02,.21-.01,.41-.1,.61-.2,.13-.13,.31-.1,.49,.03,.13,0,.26-.05,.38-.16,.11-.16,.24-.05,.39,.02,.12,0,.23-.07,.32-.2,.11-.21,.24-.05,.4,.02,.21,0,.42-.11,.61-.19,.13-.13,.31-.1,.49-.02,.13-.03,.25-.05,.38-.16,.11-.17,.24-.06,.38,.02,.12,0,.23-.06,.33-.2,.11-.21,.24-.06,.4,.02,.16,0,.32-.09,.46-.2,.11-.2,.24-.06,.4,.03,.27-.05,.51-.12,.76-.12,.09-.11,.21-.08,.34Zm-42.01,20.65c3.57,0,6.44-2.87,6.44-6.45,0-3.53-2.88-6.35-6.41-6.41-3.06-.05-6.47,2.39-6.47,6.42,0,4.04,3.4,6.55,6.45,6.44Z"/><path class="cls-1" d="M119.36,47.36c-.11-.13-.2-.23-.4-.07-.45,.36-.92,.68-1.39,1.01-1.5,1.1-2.99,2.22-4.47,3.34-2.72,2.06-5.45,4.1-8.18,6.15-3.65,2.73-7.3,5.46-10.94,8.21-1.26,.95-2.49,1.93-3.79,2.82-.48,.33-.47,.29-.97-.03-.69-.45-1.21-1.08-1.82-1.61-.7-.6-1.4-1.24-2.08-1.87-1.19-1.1-2.42-2.16-3.64-3.24-.46-.41-.9-.85-1.38-1.25-.76-.62-1.42-1.35-2.17-1.98-1.13-.96-2.17-2.01-3.33-2.94-.54-.43-1.01-.94-1.54-1.4-1.21-1.04-2.35-2.17-3.56-3.22-.42-.37-.79-.83-1.35-1.03,.02-.34,.3-.47,.52-.64,3.7-2.77,7.4-5.53,11.1-8.3,4.49-3.35,8.98-6.71,13.47-10.06,.7-.53,.54-.47,1.23-.04,8.08,5.09,16.16,10.18,24.25,15.27q.55,.34,.43,.86Z"/><path class="cls-1" d="M17.3,47.09c.12,.01,.23,.04,.33,.13,.51,.46,1.03,.93,1.54,1.39,1.16,1.03,2.33,2.04,3.49,3.08,.48,.43,.96,.86,1.43,1.3,1.5,1.4,3.09,2.71,4.59,4.11,1.26,1.17,2.55,2.31,3.85,3.42,1.43,1.22,2.79,2.53,4.24,3.74,.69,.58,1.35,1.21,2.02,1.82,1.05,.97,2.16,1.88,3.23,2.83,.52,.46,1.03,.93,1.54,1.4,1.22,1.1,2.46,2.19,3.7,3.27,.74,.64,1.35,1.35,1.65,2.36,1.13,3.73,2.35,7.42,3.53,11.13,.65,2.03,1.3,4.05,1.94,6.08,.7,2.23,1.39,4.47,2.1,6.7,.7,2.21,1.43,4.4,2.14,6.61,.26,.82,.52,1.64,.78,2.46,.04,.11,.05,.23,.16,.31-.07,.35-.24,.12-.34,.04-.78-.6-1.55-1.21-2.32-1.82-9.87-7.82-19.75-15.65-29.62-23.47-1.33-1.06-2.65-2.13-4-3.16-.35-.27-.54-.56-.61-.99-.53-3.28-1.09-6.56-1.63-9.85-.65-3.87-1.29-7.74-1.94-11.62-.6-3.59-1.2-7.18-1.79-10.77-.03-.16-.02-.33-.03-.5Z"/><path class="cls-1" d="M72.69,88.8c.2-.69,.78-.93,1.38-1.11,.62-.19,1.26-.29,1.91-.31,1.75-.06,3.5-.08,5.24,.07,2.89,.25,5.79,.27,8.69,.23,3.45-.04,6.9-.12,10.34-.19,1.32-.03,2.63-.09,3.95-.13,.23,0,.46,0,.68,0,.02,.25-.15,.3-.25,.38-4.45,3.53-8.9,7.05-13.35,10.57-.11,.09-.24,.16-.35,.23-.02-.2-.18-.26-.33-.34-1.35-.72-2.7-1.45-4.05-2.17-1.69-.9-3.38-1.79-5.08-2.68-2.58-1.36-5.16-2.73-7.74-4.08-.34-.18-.66-.4-1.04-.47Z"/><path class="cls-1" d="M72.69,88.8c.39,.07,.71,.29,1.04,.47,2.58,1.35,5.16,2.72,7.74,4.08,1.69,.89,3.39,1.78,5.08,2.68,1.35,.72,2.7,1.44,4.05,2.17,.15,.08,.31,.14,.33,.34-1.15,1.04-2.42,1.95-3.62,2.92-1.58,1.28-3.18,2.53-4.78,3.79-.07,.06-.16,.11-.22,.18-.23,.22-.41,.16-.59-.07-.48-.59-.98-1.17-1.47-1.77-1.63-2-3.32-3.96-4.8-6.08-1.05-1.52-2.03-3.07-2.6-4.85-.37-1.15-.56-2.33-.29-3.53,.03-.11,.09-.22,.13-.33Z"/><path class="cls-1" d="M73.41,112.4c-.28,.37-.68,.6-1.03,.88-1.22,.97-2.44,1.94-3.66,2.9-.36,.29-.38,.28-.56-.12-1.1-2.51-2.03-5.07-2.51-7.78-.41-2.29-.66-4.6-.72-6.93-.03-1.01,.05-2.01,.17-3.01,.02-.21,.06-.44,.15-.63,.07-.15,.19-.08,.25,.06,0,.1,.06,.17,.17,.19,0,0,0-.02,0-.02-.07,.21,.05,.37,.14,.54,.47,.91,.95,1.82,1.44,2.72,1.04,1.9,2.09,3.8,3.13,5.7,.73,1.34,1.42,2.7,2.18,4.02,.28,.49,.46,1.05,.87,1.46Z"/><path class="cls-1" d="M73.41,112.4c-.41-.41-.59-.97-.87-1.46-.76-1.32-1.45-2.68-2.18-4.02-1.04-1.9-2.09-3.8-3.13-5.7-.49-.9-.96-1.81-1.44-2.72-.09-.17-.2-.33-.14-.54,.74,.45,1.33,1.09,1.97,1.66,3.26,2.89,6.52,5.78,9.82,8.61,.07,.06,.15,.12,.22,.19,.39,.36,.4,.37,0,.69-.82,.66-1.64,1.31-2.48,1.96-.59,.45-1.11,.98-1.77,1.34Z"/><path class="cls-1" d="M116.18,66.47c-.1-.2-.15-.39,.08-.53,.05,.19,.05,.37-.08,.53Z"/><path class="cls-1" d="M117.76,56.98c-.1-.2-.15-.39,.07-.54,.06,.19,.05,.37-.07,.54Z"/><path class="cls-1" d="M115.17,72.52c-.1-.2-.15-.39,.07-.54,.06,.19,.04,.37-.07,.54Z"/><path class="cls-1" d="M114.59,75.97c-.1-.2-.15-.38,.08-.53,.05,.19,.05,.37-.08,.53Z"/><path class="cls-1" d="M118.5,52.53c-.15-.16-.14-.29,.06-.4,.06,.14,.04,.28-.06,.4Z"/><path class="cls-1" d="M118.36,53.4c-.15-.16-.14-.29,.06-.4,.06,.14,.03,.28-.06,.4Z"/><path class="cls-1" d="M118.05,55.26c-.11-.15-.11-.28,.06-.38,.07,.14,.06,.27-.06,.38Z"/><path class="cls-1" d="M117.92,55.99c-.15-.16-.14-.29,.06-.4,.06,.15,.04,.28-.06,.4Z"/><path class="cls-1" d="M117.58,57.94c-.03-.17-.09-.36,.1-.49,.07,.18,.04,.35-.1,.49Z"/><path class="cls-1" d="M117.35,59.44c-.15-.16-.14-.29,.06-.4,.06,.15,.03,.28-.06,.4Z"/><path class="cls-1" d="M117.14,60.53c-.03-.17-.09-.36,.1-.49,.07,.18,.04,.35-.1,.49Z"/><path class="cls-1" d="M117.04,61.3c-.11-.15-.11-.28,.06-.38,.07,.14,.06,.27-.06,.38Z"/><path class="cls-1" d="M116.92,62.03c-.15-.16-.14-.29,.06-.4,.06,.15,.04,.28-.06,.4Z"/><path class="cls-1" d="M116.77,62.89c-.15-.16-.14-.29,.05-.4,.06,.14,.03,.28-.05,.4Z"/><path class="cls-1" d="M116.57,63.98c-.03-.18-.09-.36,.1-.49,.07,.18,.04,.35-.1,.49Z"/><path class="cls-1" d="M116.46,64.75c-.11-.15-.11-.28,.06-.38,.07,.14,.06,.27-.06,.38Z"/><path class="cls-1" d="M116.34,65.48c-.15-.16-.14-.29,.06-.4,.06,.14,.04,.28-.06,.4Z"/><path class="cls-1" d="M115.99,67.44c-.03-.18-.09-.36,.1-.49,.07,.18,.04,.35-.1,.49Z"/><path class="cls-1" d="M115.77,68.93c-.15-.16-.14-.29,.06-.4,.06,.15,.03,.28-.06,.4Z"/><path class="cls-1" d="M115.46,70.79c-.11-.15-.1-.28,.06-.38,.07,.14,.06,.27-.06,.38Z"/><path class="cls-1" d="M115.34,71.52c-.15-.16-.14-.29,.06-.4,.06,.15,.04,.28-.06,.4Z"/><path class="cls-1" d="M114.99,73.47c-.03-.17-.09-.36,.1-.48,.07,.18,.04,.35-.1,.48Z"/><path class="cls-1" d="M119.16,48.45c-.03-.18-.09-.36,.1-.49,.07,.18,.04,.35-.1,.49Z"/><path class="cls-1" d="M114.76,74.97c-.15-.16-.14-.3,.06-.4,.06,.15,.03,.28-.06,.4Z"/><path class="cls-1" d="M119.06,49.22c-.11-.15-.11-.28,.05-.39,.08,.14,.06,.27-.05,.39Z"/><path class="cls-1" d="M114.41,76.93c-.03-.18-.1-.36,.1-.49,.07,.18,.04,.35-.1,.49Z"/><path class="cls-1" d="M114.18,78.42c-.14-.16-.14-.29,.06-.4,.06,.15,.03,.28-.06,.4Z"/><path class="cls-1" d="M114.89,74.24c-.12-.15-.11-.28,.05-.39,.08,.14,.06,.27-.05,.39Z"/><path class="cls-1" d="M113.83,80.34c-.03-.16-.07-.32,.1-.44,.08,.17,.07,.32-.1,.44Z"/><path class="cls-1" d="M118.93,49.95c-.15-.16-.14-.29,.05-.4,.06,.15,.03,.28-.05,.4Z"/><path class="cls-1" d="M118.73,51.04c-.03-.18-.1-.36,.1-.49,.07,.18,.04,.35-.1,.49Z"/><path class="cls-1" d="M118.62,51.81c-.11-.15-.1-.28,.06-.38,.07,.14,.06,.27-.06,.38Z"/><path class="cls-1" d="M117.5,58.58c-.12-.1-.1-.18,.03-.25,.07,.09,.06,.18-.03,.25Z"/><path class="cls-1" d="M118.15,54.5c-.03-.13-.05-.25,.08-.34,.09,.14,.02,.24-.08,.34Z"/><path class="cls-1" d="M115.57,70.03c-.03-.13-.05-.25,.08-.34,.08,.14,.02,.24-.08,.34Z"/><path class="cls-1" d="M114.33,77.56c-.12-.1-.1-.18,.03-.25,.08,.1,.05,.18-.03,.25Z"/><path class="cls-1" d="M115.91,68.07c-.12-.1-.1-.18,.03-.25,.07,.09,.05,.18-.03,.25Z"/><path class="cls-1" d="M113.98,79.52c-.03-.13-.05-.25,.08-.33,.09,.14,.02,.24-.08,.33Z"/><path class="cls-1" d="M65.66,97.98c-.11-.02-.16-.08-.17-.19,.09,.03,.16,.08,.17,.19Z"/></g></g></g></svg>